# AST/ASF file generated using VICON BodyLanguage
# -----------------------------------------------
:version 1.10
:name VICON
:units
  mass 1.0
  length 0.45
  angle deg
:documentation
   .ast/.asf automatically generated from VICON data using
   VICON BodyBuilder and BodyLanguage model FoxedUp or BRILLIANT.MOD
:root
   order TX TY TZ RX RY RZ
   axis XYZ
   position 0 0 0  
   orientation 0 0 0 
:bonedata
  begin
     id 1 
     name lhipjoint
     direction 0.643824 -0.71708 0.266994 
     length 2.52133 
     axis 0 0 0  XYZ
  end
  begin
     id 2 
     name lfemur
     direction 0.34202 -0.939693 0  
     length 7.51824  
     axis 0 0 20  XYZ
    dof rx ry rz
    limits (-160.0 20.0)
           (-70.0 70.0)
           (-60.0 70.0)
  end
  begin
     id 3 
     name ltibia
     direction 0.34202 -0.939693 0   
     length 7.3685   
     axis 0 0 20   XYZ
    dof rx
    limits (-10.0 170.0)
  end
  begin
     id 4 
     name lfoot
     direction 0.105419 -0.289636 0.951314   
     length 2.20972   
     axis -90 7.62852e-016 20   XYZ
    dof rx rz
    limits (-45.0 90.0)
           (-70.0 20.0)
  end
  begin
     id 5 
     name ltoes
     direction 1.53549e-011 -4.21833e-011 1   
     length 1.10139   
     axis -90 7.62852e-016 20   XYZ
    dof rx
    limits (-90.0 20.0)
  end
  begin
     id 6 
     name rhipjoint
     direction -0.608823 -0.743445 0.276811   
     length 2.43192  
     axis 0 0 0  XYZ 
  end
  begin
     id 7 
     name rfemur
     direction -0.34202 -0.939693 0   
     length 7.69715   
     axis 0 0 -20   XYZ
    dof rx ry rz
    limits (-160.0 20.0)
           (-70.0 70.0)
           (-70.0 60.0)
  end
  begin
     id 8 
     name rtibia
     direction -0.34202 -0.939693 0   
     length 7.44924   
     axis 0 0 -20   XYZ
    dof rx
    limits (-10.0 170.0)
 end
 begin
     id 9 
     name rfoot
     direction -0.103614 -0.284677 0.953007   
     length 2.22623  
     axis -90 -7.62852e-016 -20   XYZ
    dof rx rz
    limits (-45.0 90.0)
           (-20.0 70.0)
  end
  begin
     id 10 
     name rtoes
     direction -1.53537e-011 -4.22026e-011 1   
     length 1.11   
     axis -90 -7.62852e-016 -20   XYZ
    dof rx
    limits (-90.0 20.0)
  end
  begin
     id 11 
     name lowerback
     direction -0.0101212 0.99662 -0.0815298   
     length 2.08277   
     axis 0 0 0   XYZ
    dof rx ry rz
    limits (-20.0 45.0)
           (-30.0 30.0)
           (-30.0 30.0)
  end
  begin
     id 12 
     name upperback
     direction 0.024314 0.999591 -0.0150645   
     length 2.08524   
     axis 0 0 0   XYZ
    dof rx ry rz
    limits (-20.0 45.0)
           (-30.0 30.0)
           (-30.0 30.0)
  end
  begin
     id 13 
     name thorax
     direction 0.0285959 0.999323 0.0231357   
     length 2.09645   
     axis 0 0 0   XYZ
    dof rx ry rz
    limits (-20.0 45.0)
           (-30.0 30.0)
           (-30.0 30.0)
  end
  begin
     id 14 
     name lowerneck
     direction -0.065512 0.979301 0.191515   
     length 1.63798   
     axis 0 0 0   XYZ
    dof rx ry rz
    limits (-20.0 45.0)
           (-30.0 30.0)
           (-30.0 30.0)
  end
  begin
     id 15 
     name upperneck
     direction 0.0498479 0.98191 -0.182667   
     length 1.68731   
     axis 0 0 0   XYZ
    dof rx ry rz
    limits (-20.0 45.0)
           (-30.0 30.0)
           (-30.0 30.0)
  end
  begin
     id 16
     name head
     direction 0.0230358 0.996257 -0.0833175  
     length 1.69785  
     axis 0 0 0   XYZ
    dof rx ry rz
    limits (-20.0 45.0)
           (-30.0 30.0)
           (-30.0 30.0)
  end
  begin
     id 17 
     name lclavicle
     direction 0.967963 0.201165 -0.150269  
     length 3.63976  
     axis 0 0 0   XYZ
    dof ry rz
    limits (-20.0 10.0)
           (0.0 20.0)
  end
  begin
     id 18 
     name lhumerus
     direction 1 -4.48954e-011 -2.92837e-028   
     length 5.32462   
     axis 180 -30 -90   XYZ
    dof rx ry rz
    limits (-60.0 90.0)
           (-90.0 90.0)
           (-90.0 90.0)
  end
  begin
     id 19
     name lradius
     direction 1 -4.48958e-011 -6.39511e-027   
     length 3.48402   
     axis 180 -30 -90   XYZ
    dof rx
    limits (-10.0 170.0)
  end
  begin
     id 20
     name lwrist
     direction 1 -4.48975e-011 -1.1413e-026   
     length 1.74201   
     axis 6.88575e-015 90 90   XYZ
    dof ry
    limits (-180.0 0.0)
 end
  begin
     id 21 
     name lhand
     direction 1 -4.48899e-011 -2.28192e-026   
     length 0.572476   
     axis 1.45643e-014 90 90   XYZ
    dof rx rz
    limits (-90.0 90.0)
           (-45.0 45.0)
  end
  begin
     id 22 
     name lfingers
     direction 1 -4.49155e-011 -4.5684e-026   
     length 0.461545   
     axis 2.91283e-014 90 90   XYZ
    dof rx
    limits (0.0 90.0)
  end
  begin
     id 23
     name lthumb
     direction 0.707107 -6.34943e-011 0.707107   
     length 0.662688   
     axis -90 45 -2.25915e-014   XYZ
    dof rx rz
    limits (-45.0 45.0)
           (-45.0 45.0)
  end
  begin
     id 24 
     name rclavicle
     direction -0.964103 0.264019 -0.0282629   
     length 3.54491  
     axis 0 0 0   XYZ 
    dof ry rz
    limits (-10.0 20.0)
           (-20.0 0.0)
  end
  begin
     id 25 
     name rhumerus
     direction -1 -4.48964e-011 -2.45032e-027  
     length 5.33589   
     axis 180 30 90   XYZ
    dof rx ry rz
    limits (-90.0 60.0)
           (-90.0 90.0)
           (-90.0 90.0)
  end
  begin
     id 26 
     name rradius
     direction -1 -4.48987e-011 -1.55093e-027   
     length 3.64134   
     axis 180 30 90   XYZ
    dof rx
    limits (-10.0 170.0)
  end
  begin
     id 27 
     name rwrist
     direction -1 -4.4897e-011 -1.14128e-026   
     length 1.82067   
     axis 6.88575e-015 -90 -90   XYZ
    dof ry
    limits (-180.0 0.0)
  end
  begin
     id 28
     name rhand
     direction -1 -4.49021e-011 -2.28301e-026   
     length 0.734811   
     axis 1.45643e-014 -90 -90   XYZ
    dof rx rz
    limits (-90.0 90.0)
           (-45.0 45.0)
  end
  begin
     id 29
     name rfingers
     direction -1 -4.48862e-011 -4.56319e-026   
     length 0.592424   
     axis 2.91283e-014 -90 -90   XYZ
    dof rx
    limits (0.0 90.0)
  end
  begin
     id 30
     name rthumb
     direction -0.707107 -6.34978e-011 0.707107   
     length 0.850605   
     axis -90 -45 2.25915e-014   XYZ
    dof rx rz
    limits (-45.0 45.0)
           (-45.0 45.0)
  end
:hierarchy
  begin
    root lhipjoint rhipjoint lowerback
    lhipjoint lfemur
    lfemur ltibia
    ltibia lfoot
    lfoot ltoes
    rhipjoint rfemur
    rfemur rtibia
    rtibia rfoot
    rfoot rtoes
    lowerback upperback
    upperback thorax
    thorax lowerneck lclavicle rclavicle
    lowerneck upperneck
    upperneck head
    lclavicle lhumerus
    lhumerus lradius
    lradius lwrist
    lwrist lhand lthumb
    lhand lfingers
    rclavicle rhumerus
    rhumerus rradius
    rradius rwrist
    rwrist rhand rthumb
    rhand rfingers
  end

#!OML:ASF F:\VICON\USERDATA\INSTALL\rory3\rory3.ASF
:FULLY-SPECIFIED
:DEGREES
135
root 3.87387 17.7753 2.87903 -0.454449 -74.7867 10.856
lowerback 4.10876 0.409881 -5.49376
upperback 3.10694 0.331252 -0.063588
thorax 0.86877 0.0580167 3.00385
lowerneck -14.3661 0.657706 -11.8902
upperneck 42.3718 3.85799 -1.30687
head 18.2267 -1.11101 2.04538
rclavicle 2.53947e-014 -8.49804e-015
rhumerus -27.3572 1.96499 -73.8493
rradius 39.2529
rwrist 35.1083
rhand -34.7705 -2.74885
rfingers 7.12502
rthumb -7.92326 -32.5804
lclavicle 2.53947e-014 -8.49804e-015
lhumerus -31.3363 8.89957 80.0411
lradius 32.2277
lwrist -6.89973
lhand -10.4507 21.8265
lfingers 7.12502
lthumb 15.5496 51.2213
rfemur -21.3155 -4.33621 20.5464
rtibia 55.1207
rfoot -11.3749 1.48721
rtoes -1.8034
lfemur -27.2742 5.98864 -27.8324
ltibia 22.0085
lfoot -3.02554 0.510912
ltoes -4.12367
136
root 3.81577 17.7795 2.89255 -0.31755 -74.5617 10.7097
lowerback 4.12047 0.519043 -5.56544
upperback 3.13981 0.473269 -0.198277
thorax 0.883737 0.12731 2.90009
lowerneck -14.2613 0.517092 -11.6985
upperneck 42.4094 3.54954 -1.27009
head 18.2413 -1.19592 1.97358
rclavicle 1.68097e-014 -2.20403e-014
rhumerus -27.5289 1.43547 -73.9157
rradius 38.9427
rwrist 35.5765
rhand -34.584 -2.94213
rfingers 7.12502
rthumb -7.74331 -32.7803
lclavicle 1.68097e-014 -2.20403e-014
lhumerus -30.9054 7.61802 80.1817
lradius 32.38
lwrist -6.47789
lhand -10.7158 21.7622
lfingers 7.12502
lthumb 15.2943 51.1767
rfemur -22.2352 -4.68811 20.5066
rtibia 56.5917
rfoot -11.4112 1.70362
rtoes -5.27991
lfemur -27.08 6.35901 -27.9468
ltibia 21.9936
lfoot -3.24027 -0.035435
ltoes -3.79494
137
root 3.76108 17.7771 2.90314 -0.0288774 -74.304 10.4335
lowerback 4.11512 0.550626 -5.67939
upperback 3.19465 0.512659 -0.24523
thorax 0.939856 0.142281 2.91432
lowerneck -14.2596 0.441535 -11.6056
upperneck 42.4388 3.41644 -1.2883
head 18.2698 -1.2361 1.92541
rclavicle -2.9372e-014 2.65346e-014
rhumerus -27.5828 1.22097 -73.9589
rradius 38.7067
rwrist 35.8662
rhand -34.2954 -3.04554
rfingers 7.12502
rthumb -7.46473 -32.8938
lclavicle -2.9372e-014 2.65346e-014
lhumerus -30.5458 6.30971 80.3262
lradius 32.7417
lwrist -5.78597
lhand -10.7755 21.7187
lfingers 7.12502
lthumb 15.2368 51.1375
rfemur -23.14 -5.02734 20.5276
rtibia 57.8847
rfoot -11.3598 2.37824
rtoes -4.97453
lfemur -26.9896 6.81243 -28.048
ltibia 22.0639
lfoot -3.45382 -0.603599
ltoes -2.8841
138
root 3.71125 17.7735 2.90759 0.261564 -74.066 10.132
lowerback 4.2413 0.530985 -5.84187
upperback 3.21667 0.472385 -0.262761
thorax 0.895693 0.119831 2.98799
lowerneck -14.3356 0.433676 -11.4758
upperneck 42.4959 3.41381 -1.37066
head 18.3303 -1.23233 1.86417
rclavicle -9.20621e-015 9.79014e-015
rhumerus -27.6726 1.32065 -74.0905
rradius 38.5713
rwrist 36.1328
rhand -34.1391 -3.15356
rfingers 7.12502
rthumb -7.31383 -33.0072
lclavicle -9.20621e-015 9.79014e-015
lhumerus -30.4011 6.60923 80.457
lradius 33.0655
lwrist -6.49322
lhand -11.0189 21.5497
lfingers 7.12502
lthumb 15.0023 50.9863
rfemur -24.0156 -5.06823 20.5571
rtibia 59.0185
rfoot -11.2994 3.10471
rtoes -2.33422
lfemur -26.8879 6.98147 -28.0113
ltibia 22.2009
lfoot -3.69733 -0.894975
ltoes -2.39319
139
root 3.65663 17.7774 2.91776 0.707839 -73.8502 9.59284
lowerback 4.39573 0.315964 -5.95943
upperback 3.20432 0.171788 -0.116805
thorax 0.825571 -0.031121 3.21516
lowerneck -14.3331 0.640486 -11.8095
upperneck 42.5513 3.82468 -1.35099
head 18.3333 -1.13038 2.00402
rclavicle -2.96313e-014 4.09993e-015
rhumerus -27.6351 2.1846 -74.2494
rradius 38.3773
rwrist 36.2399
rhand -33.9144 -3.9807
rfingers 7.12502
rthumb -7.09694 -33.8417
lclavicle -2.96313e-014 4.09993e-015
lhumerus -30.4596 7.37132 80.483
lradius 33.3864
lwrist -6.80256
lhand -11.1084 21.44
lfingers 7.12502
lthumb 14.9161 50.883
rfemur -24.8054 -5.19707 20.5902
rtibia 60.0009
rfoot -11.1441 3.7588
rtoes -1.61805
lfemur -26.6783 6.83525 -27.8215
ltibia 22.3888
lfoot -4.05266 -0.981739
ltoes -3.73039
140
root 3.60366 17.7857 2.92204 1.12098 -73.5105 9.22307
lowerback 4.49227 -0.324035 -6.51639
upperback 3.08622 -0.704622 0.454774
thorax 0.756597 -0.476176 4.15334
lowerneck -14.4571 1.18859 -13.1045
upperneck 42.6319 5.07273 -1.30875
head 18.3147 -0.863524 2.46647
rclavicle 2.3469e-014 -6.78353e-015
rhumerus -27.2136 4.65047 -74.2474
rradius 38.103
rwrist 35.9621
rhand -33.3674 -5.20599
rfingers 7.12502
rthumb -6.56889 -35.0841
lclavicle 2.3469e-014 -6.78353e-015
lhumerus -30.8692 9.58377 80.5245
lradius 33.7216
lwrist -7.07541
lhand -10.8935 21.166
lfingers 7.12502
lthumb 15.1231 50.5934
rfemur -25.7323 -5.5464 20.6252
rtibia 60.8464
rfoot -10.9038 4.60448
rtoes -2.92981
lfemur -26.6867 6.8327 -27.749
ltibia 22.6744
lfoot -4.45125 -1.30894
ltoes -4.32348
141
root 3.55077 17.7842 2.92684 1.47571 -73.2286 8.82583
lowerback 4.57008 0.201448 -6.12007
upperback 3.21507 0.00100585 -0.159271
thorax 0.757394 -0.117305 3.26779
lowerneck -14.3599 0.6868 -11.8937
upperneck 42.7714 3.83594 -1.11822
head 18.4592 -1.12556 2.13141
rclavicle 1.09332e-014 -1.85864e-014
rhumerus -27.7374 2.12463 -74.6571
rradius 37.9144
rwrist 36.3296
rhand -32.9101 -5.75828
rfingers 7.12502
rthumb -6.12739 -35.6497
lclavicle 1.09332e-014 -1.85864e-014
lhumerus -29.8311 7.2018 80.4206
lradius 33.7822
lwrist -6.9814
lhand -10.935 21.1877
lfingers 7.12502
lthumb 15.0831 50.6182
rfemur -26.5448 -5.76988 20.7288
rtibia 61.5685
rfoot -10.7201 5.55122
rtoes -3.53008
lfemur -26.6111 6.55976 -27.546
ltibia 23.0299
lfoot -4.77038 -1.11734
ltoes -2.15979
142
root 3.49811 17.7723 2.93435 1.85578 -73.0385 8.39605
lowerback 4.63487 0.175206 -6.13414
upperback 3.27202 -0.0386781 -0.190121
thorax 0.784251 -0.139858 3.24527
lowerneck -14.3919 0.693117 -11.8953
upperneck 42.8385 3.83702 -1.07557
head 18.5065 -1.12507 2.15277
rclavicle -2.38045e-014 -1.50082e-014
rhumerus -27.6787 1.68596 -74.7553
rradius 37.628
rwrist 36.7111
rhand -32.6905 -5.54648
rfingers 7.12502
rthumb -5.9154 -35.4439
lclavicle -2.38045e-014 -1.50082e-014
lhumerus -29.5619 7.03885 80.373
lradius 34.0764
lwrist -7.11681
lhand -11.1582 21.2938
lfingers 7.12502
lthumb 14.8681 50.7403
rfemur -27.3667 -6.02455 20.9064
rtibia 62.1897
rfoot -10.5279 6.41481
rtoes -4.81291
lfemur -26.5524 6.3097 -27.3244
ltibia 23.4064
lfoot -5.02197 -0.952428
ltoes -0.494935
143
root 3.44593 17.7673 2.94162 2.43379 -72.8273 7.85742
lowerback 4.67165 -0.268953 -6.52944
upperback 3.2035 -0.644533 0.308155
thorax 0.768881 -0.44983 4.00738
lowerneck -14.4834 1.06264 -12.8489
upperneck 42.8897 4.7737 -1.20672
head 18.4989 -0.946009 2.42075
rclavicle 1.40764e-014 -5.76476e-015
rhumerus -27.3396 3.06994 -74.5292
rradius 37.3149
rwrist 36.9921
rhand -32.5016 -5.38772
rfingers 7.12502
rthumb -5.73303 -35.2902
lclavicle 1.40764e-014 -5.76476e-015
lhumerus -29.8176 8.46587 80.5176
lradius 34.4618
lwrist -7.05678
lhand -11.3237 21.3162
lfingers 7.12502
lthumb 14.7087 50.7744
rfemur -28.2872 -6.19017 21.0956
rtibia 62.6944
rfoot -10.2614 7.24762
rtoes -6.93841
lfemur -26.6614 6.38187 -27.1931
ltibia 23.8051
lfoot -5.31932 -1.275
ltoes -1.87092
